<?xml version="1.0" encoding="iso-8859-1"?>
<!-- Generator: Adobe Illustrator 19.0.0, SVG Export Plug-In . SVG Version: 6.00 Build 0)  -->
<svg version="1.1" id="Layer_1" xmlns="http://www.w3.org/2000/svg" xmlns:xlink="http://www.w3.org/1999/xlink" x="0px" y="0px"
	 viewBox="0 0 511.998 511.998" style="enable-background:new 0 0 511.998 511.998;" xml:space="preserve">
<path style="fill:#58595B;" d="M29.648,208.136v193.207c0,2.873,2.351,5.224,5.224,5.224h223.119
	c-1.21-6.783-1.843-13.766-1.843-20.897c0-65.441,53.189-118.491,118.804-118.491c10.163,0,20.025,1.276,29.441,3.67v-62.712H29.648
	V208.136z"/>
<path style="opacity:0.1;enable-background:new    ;" d="M49.131,401.344V208.136H29.648v193.207c0,2.873,2.351,5.224,5.224,5.224
	h19.483C51.482,406.569,49.131,404.217,49.131,401.344z"/>
<path style="fill:#58595B;" d="M411.6,202.911c0,2.873-2.351,5.224-5.224,5.224H27.666c-2.873,0-5.224-2.351-5.224-5.224v-42.683
	c0-2.873,2.351-5.224,5.224-5.224h378.71c2.873,0,5.224,2.351,5.224,5.224V202.911z"/>
<g>
	<polygon style="fill:#FFFFFF;" points="309.781,208.136 350.791,208.136 381.548,155.005 340.538,155.005 	"/>
	<polygon style="fill:#FFFFFF;" points="221.518,208.136 262.528,208.136 293.286,155.005 252.276,155.005 	"/>
	<polygon style="fill:#FFFFFF;" points="133.258,208.136 174.268,208.136 205.025,155.005 164.015,155.005 	"/>
	<polygon style="fill:#FFFFFF;" points="44.997,208.136 86.006,208.136 116.764,155.005 75.754,155.005 	"/>
</g>
<g style="opacity:0.1;">
	<path d="M43.888,202.911v-42.683c0-2.873,2.351-5.224,5.224-5.224H27.666c-2.873,0-5.224,2.351-5.224,5.224v42.683
		c0,2.873,2.351,5.224,5.224,5.224h21.446C46.239,208.136,43.888,205.785,43.888,202.911z"/>
</g>
<path style="fill:#58595B;" d="M20.897,153.397c0.745,2.775,3.627,4.438,6.403,3.697l365.805-97.758
	c2.776-0.742,4.438-3.62,3.692-6.395l-11.078-41.23c-0.745-2.775-3.627-4.439-6.403-3.697L13.51,105.773
	c-2.776,0.742-4.438,3.62-3.692,6.395L20.897,153.397z"/>
<g>
	<polygon style="fill:#FFFFFF;" points="120.603,132.159 80.991,142.744 37.493,99.363 77.105,88.778 	"/>
	<polygon style="fill:#FFFFFF;" points="205.857,109.376 166.245,119.963 122.748,76.58 162.36,65.993 	"/>
	<polygon style="fill:#FFFFFF;" points="291.111,86.592 251.499,97.179 208.001,53.796 247.615,43.21 	"/>
	<polygon style="fill:#FFFFFF;" points="376.364,63.808 336.751,74.395 293.255,31.014 332.869,20.428 	"/>
</g>
<path style="fill:#E0E0E0;" d="M373.255,267.202v-25.29c0-2.873-2.351-5.224-5.224-5.224H66.012c-2.873,0-5.224,2.351-5.224,5.224
	v34.313c0,2.873,2.351,5.224,5.224,5.224h252.372C334.738,272.602,353.409,267.48,373.255,267.202z"/>
<g style="opacity:0.1;">
	<path d="M93.999,276.224v-34.313c0-2.873,2.351-5.224,5.224-5.224H66.012c-2.873,0-5.224,2.351-5.224,5.224v34.313
		c0,2.873,2.351,5.224,5.224,5.224h33.211C96.35,281.449,93.999,279.098,93.999,276.224z"/>
</g>
<ellipse style="fill:#E0E0E0;" cx="374.959" cy="385.67" rx="118.804" ry="118.491"/>
<g>
	<ellipse style="fill:#58595B;" cx="374.959" cy="318.671" rx="29.224" ry="29.145"/>
	<path style="fill:#58595B;" d="M447.868,392.662c-15.349,4.977-31.838-3.4-36.827-18.708c-4.987-15.309,3.411-31.753,18.76-36.728
		c15.349-4.976,31.836,3.401,36.825,18.709C471.615,371.243,463.217,387.685,447.868,392.662z"/>
	<path style="fill:#58595B;" d="M390.811,456.971c-9.489-13.02-6.599-31.249,6.455-40.713c13.056-9.465,31.332-6.582,40.822,6.44
		c9.49,13.02,6.599,31.248-6.457,40.711C418.576,472.874,400.302,469.991,390.811,456.971z"/>
	<path style="fill:#58595B;" d="M311.853,422.732c9.481-13.028,27.756-15.919,40.817-6.463c13.062,9.456,15.962,27.683,6.479,40.709
		c-9.483,13.027-27.757,15.919-40.817,6.462C305.272,453.984,302.371,435.759,311.853,422.732z"/>
	<path style="fill:#58595B;" d="M320.095,337.257c15.351,4.966,23.757,21.406,18.778,36.718
		c-4.98,15.312-21.463,23.697-36.815,18.73c-15.352-4.968-23.76-21.408-18.778-36.719
		C288.258,340.672,304.742,332.289,320.095,337.257z"/>
</g>
<g style="opacity:0.1;">
	<path d="M366.913,318.667c0-12.372,7.731-22.935,18.635-27.166c-3.284-1.275-6.852-1.981-10.589-1.981
		c-16.139,0-29.224,13.049-29.224,29.147c0,16.096,13.083,29.145,29.224,29.145c3.737,0,7.305-0.706,10.589-1.981
		C374.646,341.599,366.913,331.036,366.913,318.667z"/>
</g>
<g style="opacity:0.1;">
	<path d="M339.51,463.44c-13.061-9.456-15.961-27.681-6.479-40.708c3.427-4.709,8.007-8.086,13.071-10.042
		c-12.081-4.699-26.274-0.914-34.247,10.042c-9.481,13.027-6.582,31.252,6.479,40.708c8.339,6.039,18.801,7.035,27.745,3.581
		C343.794,466.133,341.585,464.944,339.51,463.44z"/>
</g>
<g style="opacity:0.1;">
	<path d="M304.457,355.984c2.816-8.661,9.315-15.103,17.206-18.169c-0.515-0.199-1.037-0.389-1.568-0.56
		c-15.353-4.967-31.837,3.417-36.815,18.729c-4.982,15.31,3.425,31.75,18.778,36.719c6.667,2.158,13.548,1.793,19.608-0.561
		C307.318,386.593,299.647,370.764,304.457,355.984z"/>
</g>
<path style="fill:#58595B;" d="M366.755,401.336c-9.387-4.769-13.121-16.223-8.339-25.585c4.783-9.362,16.268-13.085,25.656-8.316
	c9.384,4.769,13.12,16.223,8.337,25.585C387.627,402.382,376.142,406.106,366.755,401.336z"/>
<path d="M139.866,337.416H93.954c-4.328,0-7.837,3.509-7.837,7.837c0,4.328,3.509,7.837,7.837,7.837h45.913
	c4.328,0,7.837-3.509,7.837-7.837C147.703,340.925,144.194,337.416,139.866,337.416z"/>
<path d="M139.866,306.407H93.954c-4.328,0-7.837,3.509-7.837,7.837c0,4.328,3.509,7.837,7.837,7.837h45.913
	c4.328,0,7.837-3.509,7.837-7.837C147.703,309.916,144.194,306.407,139.866,306.407z"/>
<path d="M374.96,355.648c20.435,0,37.06-16.59,37.06-36.982c0-20.393-16.625-36.984-37.06-36.984s-37.06,16.591-37.06,36.984
	C337.9,339.058,354.525,355.648,374.96,355.648z M374.96,297.356c11.793,0,21.387,9.56,21.387,21.311
	c0,11.75-9.594,21.309-21.387,21.309s-21.387-9.559-21.387-21.309C353.573,306.916,363.167,297.356,374.96,297.356z"/>
<path d="M471.871,381.701c4.482-8.797,5.264-18.81,2.206-28.195c-4.982-15.284-19.142-25.553-35.238-25.553
	c-3.882,0-7.735,0.611-11.455,1.817c-9.428,3.056-17.094,9.595-21.586,18.413c-4.483,8.798-5.266,18.811-2.208,28.199
	c4.982,15.284,19.142,25.552,35.238,25.552c3.882,0,7.737-0.612,11.457-1.818C459.714,397.06,467.379,390.52,471.871,381.701z
	 M457.905,374.587c-2.589,5.083-7.012,8.855-12.454,10.62c-2.157,0.699-4.385,1.053-6.624,1.053
	c-9.291,0-17.463-5.922-20.336-14.735c-1.76-5.401-1.308-11.165,1.272-16.227c2.59-5.083,7.013-8.855,12.454-10.619
	c2.157-0.698,4.384-1.053,6.623-1.053c9.29,0,17.462,5.922,20.336,14.736C460.935,363.762,460.484,369.525,457.905,374.587z"/>
<path d="M414.473,476.819c7.86,0,15.384-2.443,21.758-7.065c8.016-5.811,13.282-14.388,14.826-24.154
	c1.543-9.757-0.813-19.53-6.635-27.518c-6.952-9.538-18.164-15.232-29.996-15.232c-7.86,0-15.384,2.442-21.759,7.063
	c-8.014,5.811-13.279,14.389-14.824,24.155c-1.543,9.757,0.813,19.53,6.636,27.519C391.43,471.124,402.643,476.819,414.473,476.819z
	 M393.324,436.516c0.889-5.624,3.923-10.565,8.542-13.914c3.682-2.67,8.026-4.08,12.56-4.08c6.84,0,13.318,3.286,17.33,8.791
	c3.352,4.599,4.708,10.223,3.821,15.837c-0.89,5.623-3.924,10.564-8.545,13.913c-3.682,2.67-8.025,4.08-12.559,4.08
	c-6.839,0-13.317-3.286-17.328-8.79C393.792,447.756,392.436,442.13,393.324,436.516z"/>
<path d="M313.737,469.788c6.372,4.614,13.89,7.053,21.741,7.053c11.838,0,23.056-5.701,30.007-15.249
	c5.818-7.991,8.169-17.766,6.62-27.524c-1.551-9.766-6.821-18.34-14.84-24.145c-6.372-4.613-13.89-7.052-21.742-7.052
	c-11.84,0-23.057,5.701-30.007,15.25c-5.817,7.992-8.168,17.767-6.619,27.524C300.449,455.408,305.718,463.982,313.737,469.788z
	 M318.189,427.344c4.01-5.511,10.491-8.8,17.335-8.8c4.53,0,8.869,1.409,12.55,4.074c4.622,3.346,7.659,8.285,8.551,13.908
	c0.891,5.614-0.463,11.24-3.812,15.842c-4.011,5.51-10.493,8.8-17.336,8.8c-4.529,0-8.868-1.41-12.549-4.075
	c-4.622-3.346-7.658-8.284-8.551-13.906C313.486,437.572,314.84,431.946,318.189,427.344z"/>
<path d="M322.507,329.8c-3.715-1.202-7.562-1.811-11.437-1.811c-16.107,0-30.27,10.278-35.242,25.571
	c-3.054,9.385-2.266,19.397,2.218,28.192c4.497,8.818,12.168,15.355,21.598,18.407c3.715,1.202,7.562,1.811,11.437,1.811
	c16.106,0,30.268-10.277,35.243-25.574c3.053-9.387,2.263-19.402-2.224-28.198C339.604,339.385,331.936,332.85,322.507,329.8z
	 M331.419,371.55c-2.868,8.82-11.041,14.747-20.338,14.747c-2.235,0-4.46-0.353-6.612-1.05c-5.443-1.762-9.868-5.531-12.461-10.615
	c-2.581-5.06-3.034-10.822-1.277-16.224c2.868-8.819,11.04-14.746,20.337-14.746c2.235,0,4.46,0.353,6.613,1.05
	c5.441,1.761,9.865,5.527,12.457,10.61C332.722,360.384,333.177,366.148,331.419,371.55z"/>
<path d="M399.388,396.583c3.263-6.39,3.839-13.665,1.623-20.487c-2.22-6.833-6.976-12.39-13.39-15.649
	c-3.769-1.914-7.985-2.926-12.192-2.926c-10.177,0-19.371,5.619-23.992,14.666c-3.263,6.391-3.839,13.667-1.621,20.489
	c2.221,6.833,6.977,12.389,13.389,15.646c3.769,1.915,7.985,2.928,12.193,2.928C385.575,411.25,394.768,405.63,399.388,396.583z
	 M364.72,387.829c-0.922-2.835-0.682-5.859,0.674-8.514c1.929-3.776,5.773-6.121,10.034-6.121c1.777,0,3.492,0.413,5.094,1.227
	c2.676,1.359,4.658,3.675,5.583,6.52c0.922,2.835,0.681,5.859-0.675,8.514c-1.929,3.775-5.772,6.121-10.032,6.121
	c-1.777,0-3.49-0.413-5.094-1.228C367.628,392.989,365.645,390.675,364.72,387.829z"/>
<path d="M502.362,496.326h-66.168c18.221-10.036,33.954-24.591,45.599-42.797c2.332-3.647,1.266-8.492-2.379-10.824
	c-3.647-2.331-8.493-1.267-10.824,2.379c-20.522,32.087-55.525,51.242-93.635,51.242c-61.188,0-110.968-49.64-110.968-110.654
	s49.78-110.654,110.968-110.654c61.189,0,110.969,49.64,110.969,110.654c0,12.693-2.135,25.134-6.345,36.978
	c-1.449,4.078,0.681,8.559,4.759,10.009c4.078,1.447,8.559-0.681,10.009-4.759c4.811-13.533,7.251-27.741,7.251-42.227
	c0-56.721-37.671-104.827-89.365-120.741V214.57c4.266-2.151,7.206-6.563,7.206-11.659v-42.683c0-7.202-5.859-13.061-13.061-13.061
	H94.794l205.027-54.79c4.182-1.117,6.664-5.413,5.547-9.594c-1.117-4.182-5.416-6.664-9.594-5.547l-2.325,0.621L262.78,47.269
	l28.136-7.519l31.577,31.493c-1.861,1.912-2.704,4.723-1.965,7.489c1.117,4.181,5.417,6.663,9.594,5.547l65.005-17.372
	c3.367-0.9,6.183-3.062,7.93-6.087c1.747-3.026,2.211-6.546,1.307-9.912l-11.077-41.23c-1.867-6.95-9.039-11.093-15.995-9.234
	L11.488,98.202c-3.367,0.9-6.183,3.062-7.93,6.087c-1.747,3.026-2.211,6.546-1.307,9.912l11.078,41.23
	c0.313,1.168,1.276,4.274,1.276,4.799v42.683c0,5.096,2.94,9.509,7.207,11.659v186.773c0,7.202,5.859,13.061,13.061,13.061h68.573
	c4.328,0,7.837-3.509,7.837-7.837c0-4.328-3.509-7.837-7.837-7.837H37.485V215.973h359.074v45.217
	c-5.06-0.871-10.222-1.44-15.467-1.694v-17.585c0-7.202-5.859-13.061-13.061-13.061h-26.348c-4.328,0-7.837,3.509-7.837,7.837
	c0,4.328,3.509,7.837,7.837,7.837h23.736v15.176c-17.521,1.307-34.056,6.191-48.881,13.913h-21.041v-29.089h16.929
	c4.328,0,7.837-3.509,7.837-7.837c0-4.328-3.509-7.837-7.837-7.837H66.012c-7.202,0-13.061,5.859-13.061,13.061v128.213
	c0,7.202,5.859,13.061,13.061,13.061h182.332c-0.017,0.828-0.031,1.655-0.031,2.486c0,4.409,0.23,8.766,0.674,13.06H133.748
	c-4.328,0-7.837,3.509-7.837,7.837s3.509,7.837,7.837,7.837H251.62c13.075,55.86,63.409,97.594,123.334,97.594h127.408
	c4.328,0,7.837-3.509,7.837-7.837C510.199,499.835,506.69,496.326,502.362,496.326z M378.825,16.258l9.722,36.185l-9.844,2.631
	l-30.669-30.586L378.825,16.258z M330.529,29.164l30.669,30.587l-22.107,5.908l-30.67-30.587L330.529,29.164z M245.277,51.947
	l30.669,30.587l-22.108,5.908l-30.67-30.587L245.277,51.947z M205.662,62.533l30.669,30.587l-28.136,7.519l-30.668-30.588
	L205.662,62.533z M160.022,74.73l30.669,30.587l-22.109,5.908l-30.668-30.587L160.022,74.73z M120.41,85.316l30.669,30.587
	l-28.137,7.519l-30.67-30.586L120.41,85.316z M74.766,97.514l30.669,30.586l-22.107,5.908l-30.668-30.586L74.766,97.514z
	 M18.068,112.666l17.087-4.566l30.669,30.586L27.79,148.85L18.068,112.666z M30.278,200.299v-35.89l5.867-1.568h26.018
	l-21.684,37.458H30.278z M58.588,200.299l21.684-37.458h22.9l-21.685,37.458H58.588z M99.598,200.299l21.685-37.458h29.141
	l-21.684,37.458H99.598z M146.849,200.299l21.684-37.458h22.901l-21.684,37.458H146.849z M187.859,200.299l21.684-37.458h29.141
	L217,200.299H187.859z M235.11,200.299l21.685-37.458h22.9l-21.684,37.458H235.11z M276.12,200.299l21.684-37.458h29.142
	l-21.685,37.458H276.12z M323.372,200.299l21.684-37.458h22.901l-21.684,37.458H323.372z M364.382,200.299l21.684-37.458h17.698
	v37.458H364.382z M279.823,273.612H177.446v-29.089h102.377V273.612z M161.774,244.524v29.089H68.624v-29.089H161.774z
	 M68.624,367.512v-78.226h224.564c-6.113,5.168-11.729,10.902-16.766,17.122H167.636c-4.328,0-7.837,3.509-7.837,7.837
	s3.509,7.837,7.837,7.837h97.93c-2.881,4.911-5.438,10.033-7.642,15.336h-90.287c-4.328,0-7.837,3.509-7.837,7.837
	s3.509,7.837,7.837,7.837h84.955c-1.26,4.706-2.254,9.519-2.964,14.423H68.624V367.512z"/>
<g>
</g>
<g>
</g>
<g>
</g>
<g>
</g>
<g>
</g>
<g>
</g>
<g>
</g>
<g>
</g>
<g>
</g>
<g>
</g>
<g>
</g>
<g>
</g>
<g>
</g>
<g>
</g>
<g>
</g>
</svg>
